<svg width="36" height="36" viewBox="0 0 36 36" fill="none" xmlns="http://www.w3.org/2000/svg">
<mask id="path-1-inside-1" fill="white">
<path fill-rule="evenodd" clip-rule="evenodd" d="M24 11C24 7.68629 21.3137 5 18 5C14.6863 5 12 7.68629 12 11C8.68629 11 6 13.6863 6 17C6 20.3137 8.68629 23 12 23C12 26.3137 14.6863 29 18 29C21.3137 29 24 26.3137 24 23C27.3137 23 30 20.3137 30 17C30 13.6863 27.3137 11 24 11Z"/>
</mask>
<path fill-rule="evenodd" clip-rule="evenodd" d="M24 11C24 7.68629 21.3137 5 18 5C14.6863 5 12 7.68629 12 11C8.68629 11 6 13.6863 6 17C6 20.3137 8.68629 23 12 23C12 26.3137 14.6863 29 18 29C21.3137 29 24 26.3137 24 23C27.3137 23 30 20.3137 30 17C30 13.6863 27.3137 11 24 11Z" fill="url(#paint0_linear)" fill-opacity="0.8"/>
<path d="M24 11H22V13H24V11ZM12 11V13H14V11H12ZM12 23H14V21H12V23ZM24 23V21H22V23H24ZM18 7C20.2091 7 22 8.79086 22 11H26C26 6.58172 22.4183 3 18 3V7ZM14 11C14 8.79086 15.7909 7 18 7V3C13.5817 3 10 6.58172 10 11H14ZM8 17C8 14.7909 9.79086 13 12 13V9C7.58172 9 4 12.5817 4 17H8ZM12 21C9.79086 21 8 19.2091 8 17H4C4 21.4183 7.58172 25 12 25V21ZM18 27C15.7909 27 14 25.2091 14 23H10C10 27.4183 13.5817 31 18 31V27ZM22 23C22 25.2091 20.2091 27 18 27V31C22.4183 31 26 27.4183 26 23H22ZM28 17C28 19.2091 26.2091 21 24 21V25C28.4183 25 32 21.4183 32 17H28ZM24 13C26.2091 13 28 14.7909 28 17H32C32 12.5817 28.4183 9 24 9V13Z" fill="url(#paint1_linear)" fill-opacity="0.9" mask="url(#path-1-inside-1)"/>
<mask id="path-3-inside-2" fill="white">
<path fill-rule="evenodd" clip-rule="evenodd" d="M24 11.5C24 8.18629 21.3137 5.5 18 5.5C14.6863 5.5 12 8.18629 12 11.5C8.68629 11.5 6 14.1863 6 17.5C6 20.8137 8.68629 23.5 12 23.5C12 26.8137 14.6863 29.5 18 29.5C21.3137 29.5 24 26.8137 24 23.5C27.3137 23.5 30 20.8137 30 17.5C30 14.1863 27.3137 11.5 24 11.5Z"/>
</mask>
<path d="M24 11.5H22V13.5H24V11.5ZM12 11.5V13.5H14V11.5H12ZM12 23.5H14V21.5H12V23.5ZM24 23.5V21.5H22V23.5H24ZM18 7.5C20.2091 7.5 22 9.29086 22 11.5H26C26 7.08172 22.4183 3.5 18 3.5V7.5ZM14 11.5C14 9.29086 15.7909 7.5 18 7.5V3.5C13.5817 3.5 10 7.08172 10 11.5H14ZM8 17.5C8 15.2909 9.79086 13.5 12 13.5V9.5C7.58172 9.5 4 13.0817 4 17.5H8ZM12 21.5C9.79086 21.5 8 19.7091 8 17.5H4C4 21.9183 7.58172 25.5 12 25.5V21.5ZM18 27.5C15.7909 27.5 14 25.7091 14 23.5H10C10 27.9183 13.5817 31.5 18 31.5V27.5ZM22 23.5C22 25.7091 20.2091 27.5 18 27.5V31.5C22.4183 31.5 26 27.9183 26 23.5H22ZM28 17.5C28 19.7091 26.2091 21.5 24 21.5V25.5C28.4183 25.5 32 21.9183 32 17.5H28ZM24 13.5C26.2091 13.5 28 15.2909 28 17.5H32C32 13.0817 28.4183 9.5 24 9.5V13.5Z" fill="url(#paint2_linear)" fill-opacity="0.9" mask="url(#path-3-inside-2)"/>
<g filter="url(#filter0_f)">
<path d="M20.1004 14.3809L22.7984 13.1143L21.6245 15.9251L19.5107 18.9345L16.5863 20.8978L13.2719 22.9764L15.0622 19.3536L17.5104 15.6626L20.1004 14.3809Z" fill="white" fill-opacity="0.15"/>
</g>
<g filter="url(#filter1_f)">
<path d="M30.9999 4L25.0341 20.5124L5.05589 31.0538L12.5134 10.5383L30.9999 4Z" fill="white" fill-opacity="0.2"/>
</g>
<defs>
<filter id="filter0_f" x="9.70682" y="9.76135" width="16.3791" height="16.2868" filterUnits="userSpaceOnUse" color-interpolation-filters="sRGB">
<feFlood flood-opacity="0" result="BackgroundImageFix"/>
<feBlend mode="normal" in="SourceGraphic" in2="BackgroundImageFix" result="shape"/>
<feGaussianBlur stdDeviation="1" result="effect1_foregroundBlur"/>
</filter>
<filter id="filter1_f" x="0" y="-1" width="36.0558" height="37.0538" filterUnits="userSpaceOnUse" color-interpolation-filters="sRGB">
<feFlood flood-opacity="0" result="BackgroundImageFix"/>
<feBlend mode="normal" in="SourceGraphic" in2="BackgroundImageFix" result="shape"/>
<feGaussianBlur stdDeviation="2.5" result="effect1_foregroundBlur"/>
</filter>
<linearGradient id="paint0_linear" x1="23" y1="22.5" x2="12" y2="13" gradientUnits="userSpaceOnUse">
<stop stop-color="#FF7197"/>
<stop offset="1" stop-color="#F257A6" stop-opacity="0.77"/>
</linearGradient>
<linearGradient id="paint1_linear" x1="12" y1="11" x2="23" y2="25" gradientUnits="userSpaceOnUse">
<stop stop-color="#8ABAD3"/>
<stop offset="0.922302" stop-color="#8B8AD3"/>
</linearGradient>
<linearGradient id="paint2_linear" x1="12" y1="11.5" x2="23" y2="25.5" gradientUnits="userSpaceOnUse">
<stop stop-color="#8ABAD3"/>
<stop offset="0.922302" stop-color="#8B8AD3"/>
</linearGradient>
</defs>
</svg>
